<svg xmlns="http://www.w3.org/2000/svg" viewBox="0 0 868.17 409.91"><title>Black logo</title><g id="Lager_2" data-name="Lager 2"><g id="Lager_1-2" data-name="Lager 1"><path d="M343.56,262.16a48.26,48.26,0,0,1-2.46,6.22q-1.92,4.31-4.81,9.73t-6.57,11.3A95,95,0,0,1,322,300.1a44.25,44.25,0,0,1-8.4,7.89,14.79,14.79,0,0,1-8.41,3.06q-6.13,0-10.42-5.6a44.9,44.9,0,0,1-6.92-14A98.91,98.91,0,0,1,284.1,273,165.87,165.87,0,0,1,283,254.28a409.32,409.32,0,0,1,3.5-53.71q3.51-26.55,9.2-52.66t13-51.78q7.26-25.66,14.62-51.08-3.67,0-10.25,8.76a250.63,250.63,0,0,0-15,23.13q-8.4,14.37-18.21,32.94T260,148q-10,19.55-19.79,38.55T222,221c-.59,1.06-1.34,2.37-2.28,4a30.23,30.23,0,0,1-3.24,4.47,22.37,22.37,0,0,1-4.11,3.67,8.15,8.15,0,0,1-4.73,1.58A3.93,3.93,0,0,1,204,232.9a11.88,11.88,0,0,1-1.4-4.73q-.88-10.33-1.58-23.4t-1.49-26.63q-.78-13.57-1.66-26.81t-1.93-24.18q-1-11-2.45-18.58t-3.33-10.08a31.21,31.21,0,0,0,.18,3.16c0,.93,0,2.1.09,3.5s.08,2.92.08,4.56a162.82,162.82,0,0,1-1.75,21.55Q187,144.06,183.48,159t-8.67,31.19a325.84,325.84,0,0,1-12,31.81,269,269,0,0,1-15.23,29.7A137.18,137.18,0,0,1,129,276.45a87.13,87.13,0,0,1-21.8,16.82,52,52,0,0,1-24.79,6.22q-8.92,0-14.88-3.42a32,32,0,0,1-9.64-8.23,38.94,38.94,0,0,1-5.6-10q-1.94-5.18-2.8-8.5l1.75-.7A23,23,0,0,0,57,277.06a29.49,29.49,0,0,0,8.14,5.26A39.18,39.18,0,0,0,74.63,285a63.9,63.9,0,0,0,10.07.79,48.09,48.09,0,0,0,22.07-5.34,78,78,0,0,0,19.7-14.55,130,130,0,0,0,17.16-21.55A222.76,222.76,0,0,0,158.17,218a267.38,267.38,0,0,0,11.56-29q5-15,8.41-29.52a271.77,271.77,0,0,0,5.08-27.87,173.28,173.28,0,0,0,1.48-24,49.78,49.78,0,0,0-.35-5.61q-.34-3.15-.7-6a10.73,10.73,0,0,1,.79-1.93,12.54,12.54,0,0,1,1.67-2.45,8.38,8.38,0,0,1,2.54-2,7.52,7.52,0,0,1,3.59-.79q4.89,0,8.14,7t5.17,18.4q1.92,11.39,3,25.84t1.75,29.35q.71,14.91,1.23,28.92t1.58,24.36q1,0,4.11-5.44t7.8-14.63q4.72-9.19,10.86-21.55t13-26.2q6.92-13.84,14.54-28.56t15.24-28.57Q286.29,84,293.82,71.6T308.18,50A103,103,0,0,1,321,35.41q6-5.43,10.51-5.43a27.1,27.1,0,0,1,2.8,2,3.41,3.41,0,0,1,1.41,2.72Q329.19,58.36,322,84.91t-13.22,54.41q-6,27.87-10,56.25a406,406,0,0,0-3.94,55.9,112.79,112.79,0,0,0,1.05,14.64,90.63,90.63,0,0,0,3.15,14.8,46.32,46.32,0,0,0,5.08,11.48q3,4.65,6.83,4.65,3.33,0,7.88-4.21a89.08,89.08,0,0,0,9.11-9.9,124,124,0,0,0,8.32-11.74,102.06,102.06,0,0,0,5.51-9.73Z"/><path d="M407.83,229.22a3.64,3.64,0,0,1-2.89-1.84,31.17,31.17,0,0,0-3.41-3.94,25,25,0,0,0-5.34-3.95,17.25,17.25,0,0,0-8.5-1.84A26.18,26.18,0,0,0,374,221.42a40.53,40.53,0,0,0-10.86,9.46,45.31,45.31,0,0,0-7.09,12.45,36.16,36.16,0,0,0-2.54,12.7q0,9.29,4.73,15.25a15.27,15.27,0,0,0,12.61,6,23.4,23.4,0,0,0,10.77-2.36,24.06,24.06,0,0,0,7.79-6.22,55.37,55.37,0,0,1-1.05-11.74,54,54,0,0,1,1.14-12.27,24.9,24.9,0,0,1,2.8-7.36,10.15,10.15,0,0,1,3.42-3.59,6.5,6.5,0,0,1,3-1c.93,0,2,.65,3.24,1.93s1.83,3.57,1.83,6.84a41.71,41.71,0,0,1-2.19,12.88,57.64,57.64,0,0,1-6,12.88,14.66,14.66,0,0,0,6.48,7.88,20,20,0,0,0,10,2.45,19.82,19.82,0,0,0,9.19-2.19,33,33,0,0,0,8.06-5.87,57.14,57.14,0,0,0,7.09-8.5,115.27,115.27,0,0,0,6.13-9.9l1.05.71a70.19,70.19,0,0,1-5.6,13A57.56,57.56,0,0,1,429.9,276a38.89,38.89,0,0,1-9.89,7.8,23.18,23.18,0,0,1-11.13,2.89,19.83,19.83,0,0,1-9.54-2.89q-5.18-2.9-8.5-10.43a50.93,50.93,0,0,1-12.43,10.78,28.33,28.33,0,0,1-15.06,4.29,16.28,16.28,0,0,1-8.23-2.1,19.61,19.61,0,0,1-6.22-5.61A26.69,26.69,0,0,1,345,272.5a34.76,34.76,0,0,1-1.4-10,44,44,0,0,1,3.94-17.87A58.81,58.81,0,0,1,358,228.52a54.49,54.49,0,0,1,15.06-11.65,37.63,37.63,0,0,1,17.77-4.47,38.13,38.13,0,0,1,11.48,1.49,26.91,26.91,0,0,1,7.44,3.5,14.13,14.13,0,0,1,4,4.12,7.36,7.36,0,0,1,1.22,3.33,3.45,3.45,0,0,1-2.54,3.42A13.23,13.23,0,0,1,407.83,229.22Zm-14.71,23.31a41.58,41.58,0,0,0,1.05,10A41.13,41.13,0,0,0,398,252.44a39.24,39.24,0,0,0,1.23-8.85c0-2.92-.52-4.38-1.58-4.38s-2.07,1.29-3.06,3.85A26.47,26.47,0,0,0,393.12,252.53Z"/><path d="M503.46,251.83c-.24.81-1.14,3-2.72,6.57a72.08,72.08,0,0,1-6.48,11.39,53.92,53.92,0,0,1-9.8,10.86,19.38,19.38,0,0,1-12.88,4.82q-9.29,0-16.81-7.1T441.9,258.22q-5.36-13.05-8.23-31.63a271.1,271.1,0,0,1-2.89-41.53q0-12.62.87-26.55t2.8-27.42q1.94-13.5,4.82-25.76a128.49,128.49,0,0,1,6.92-21.56A49.18,49.18,0,0,1,455.56,69q5.34-5.52,11.82-5.52,9.63,0,14.1,11.74t4.46,36.27a276.72,276.72,0,0,1-2.1,32.16A247.55,247.55,0,0,1,476.66,180a315.24,315.24,0,0,1-13.92,40q-7.28,16.56-12.35,26.37a107.76,107.76,0,0,0,4.29,12.44,49.42,49.42,0,0,0,5.34,9.73,25,25,0,0,0,6.48,6.4,13.86,13.86,0,0,0,7.71,2.27,16.93,16.93,0,0,0,9.81-3.15,42.5,42.5,0,0,0,8.14-7.36,63.14,63.14,0,0,0,6.22-8.59c1.75-2.92,3.09-5.25,4-7Zm-62-79q0,7.36.44,15.86t1.31,17.26q.87,8.78,2.19,17.53t3.24,16.82q3.67-7.71,8.67-19.8t9.63-27.25a292.56,292.56,0,0,0,7.88-32.86,203,203,0,0,0,3.24-36.62q0-11.91-1-21.82a104.73,104.73,0,0,0-2.89-17,33.81,33.81,0,0,0-4.82-11c-1.92-2.62-4.17-3.94-6.74-3.94S458,71.66,456,75.1a60.2,60.2,0,0,0-5.35,13.58A173.92,173.92,0,0,0,446.54,108q-1.76,10.86-2.89,22.25T442,152.73Q441.46,163.86,441.46,172.79Z"/><path d="M505,217a5.28,5.28,0,0,1,2.72.79,14.94,14.94,0,0,1,2.28,1.67,9.15,9.15,0,0,1,1.57,1.84,4.34,4.34,0,0,1,.62,1.14c0,.11-.15.73-.44,1.84s-.65,3-1,5.52-.76,5.93-1.05,10.07-.44,9.32-.44,15.51q0,12.45,3.06,17.35t7.45,4.9a16.5,16.5,0,0,0,8.67-2.62,38.44,38.44,0,0,0,8.14-6.84,69,69,0,0,0,7.27-9.55,104.4,104.4,0,0,0,6-10.78l1,.71c-.47,1.16-1.17,2.95-2.1,5.34s-2.1,5-3.5,7.8a92.4,92.4,0,0,1-5,8.67,44.43,44.43,0,0,1-6.66,8.06,36.8,36.8,0,0,1-8.23,6,20.43,20.43,0,0,1-9.72,2.37,16,16,0,0,1-6.75-1.41,12.92,12.92,0,0,1-5.42-5.16,31.06,31.06,0,0,1-3.68-10.43,91.12,91.12,0,0,1-1.32-17.17q0-5.43.44-11.66t1.23-11.56a48.47,48.47,0,0,1,2-8.85Q503.46,217,505,217Zm4.21-43.45c2.91,0,5,1,6.3,3.06a13.7,13.7,0,0,1,1.93,7.45c0,3.39-.94,6-2.8,7.88a9.31,9.31,0,0,1-6.83,2.81,9.06,9.06,0,0,1-5.78-2.28q-2.81-2.28-2.8-7.36,0-5.61,2.8-8.59A9.42,9.42,0,0,1,509.24,173.5Z"/><path d="M553.72,211.7c.59,0,1,.46,1.4,1.4a15.1,15.1,0,0,1,.79,3.33,29.7,29.7,0,0,1,.27,4.12v3.94q0,4.56-.27,9.37c-.17,3.22-.35,6.31-.52,9.29s-.33,5.73-.44,8.24-.18,4.58-.18,6.22a60.22,60.22,0,0,0,.35,7.27c.24,1.81.82,2.72,1.76,2.72.58,0,1.34-.76,2.27-2.28s2-3.36,3.07-5.52,2.19-4.47,3.24-6.92,2-4.62,3-6.49q1.76-3.67,4-8.15a93.06,93.06,0,0,1,4.64-8.41,34,34,0,0,1,5.16-6.57,8.17,8.17,0,0,1,5.7-2.63,5.77,5.77,0,0,1,3.41,1.05,9.61,9.61,0,0,1,2.54,2.72,16.09,16.09,0,0,1,1.66,3.51c.41,1.22.73,2.36,1,3.41.35,2.69.72,6.92,1.14,12.71s1,11.94,1.66,18.48,2.16,11.31,4.73,14.29a12.58,12.58,0,0,0,10,4.46,17.45,17.45,0,0,0,3.94-.35,11.57,11.57,0,0,1,2.54-.35c.58,0,.7.59.35,1.76a4.55,4.55,0,0,1-.79,1,7.81,7.81,0,0,1-2,1.31,16.63,16.63,0,0,1-3.77,1.23,26.53,26.53,0,0,1-5.69.53,20.75,20.75,0,0,1-9.28-1.84,14.14,14.14,0,0,1-6-5.87A31.92,31.92,0,0,1,590,268.21a126.35,126.35,0,0,1-1.4-15.33c-.24-2.81-.44-5.52-.62-8.15a55.14,55.14,0,0,0-.87-7,16.69,16.69,0,0,0-1.67-4.91,3.28,3.28,0,0,0-3-1.84c-1.06,0-2.31,1.05-3.77,3.16a56.87,56.87,0,0,0-4.29,7.44q-2.1,4.31-3.94,8.85t-3.07,7.19q-3.86,8.24-6.39,13.49t-5.52,10.16a10.48,10.48,0,0,1-1.83,2.28,3.4,3.4,0,0,1-2.37.88q-2.1,0-3.33-3.51a41.55,41.55,0,0,1-1.84-8.06q-.61-4.55-.78-9.2c-.12-3.09-.18-5.46-.18-7.09q0-2.81.09-6.84c.06-2.68.14-5.31.26-7.88s.2-4.91.26-7,.09-3.51.09-4.21,0-1.66-.09-2.89-.08-2.45-.08-3.68,0-2.34-.09-3.33-.09-1.66-.09-2a3.59,3.59,0,0,1,.79-2.37,6.68,6.68,0,0,1,1.66-1.49c.59-.35,1.52-1,2.81-1.84A6,6,0,0,1,553.72,211.7Z"/><path d="M683.33,229.22a3.61,3.61,0,0,1-2.89-1.84,32.17,32.17,0,0,0-3.42-3.94,25,25,0,0,0-5.34-3.95,17.2,17.2,0,0,0-8.5-1.84,26.2,26.2,0,0,0-13.66,3.77,40.34,40.34,0,0,0-10.85,9.46,45.35,45.35,0,0,0-7.1,12.45A36.16,36.16,0,0,0,629,256q0,9.29,4.73,15.25a15.28,15.28,0,0,0,12.61,6,23.34,23.34,0,0,0,10.77-2.36,24,24,0,0,0,7.8-6.22,55.37,55.37,0,0,1-1.05-11.74A54,54,0,0,1,665,244.64a24.88,24.88,0,0,1,2.81-7.36,10,10,0,0,1,3.41-3.59,6.54,6.54,0,0,1,3-1c.93,0,2,.65,3.24,1.93s1.84,3.57,1.84,6.84a41.71,41.71,0,0,1-2.19,12.88,58.08,58.08,0,0,1-6,12.88,14.66,14.66,0,0,0,6.48,7.88,21,21,0,0,0,19.17.26,32.84,32.84,0,0,0,8.06-5.87,57.14,57.14,0,0,0,7.09-8.5,115.27,115.27,0,0,0,6.13-9.9l1,.71a70.19,70.19,0,0,1-5.6,13A57.15,57.15,0,0,1,705.39,276a38.55,38.55,0,0,1-9.89,7.8,23.17,23.17,0,0,1-11.12,2.89,19.87,19.87,0,0,1-9.55-2.89q-5.16-2.9-8.49-10.43a51,51,0,0,1-12.44,10.78,28.33,28.33,0,0,1-15.06,4.29,16.28,16.28,0,0,1-8.23-2.1,19.72,19.72,0,0,1-6.22-5.61,26.92,26.92,0,0,1-3.94-8.24,34.76,34.76,0,0,1-1.4-10A44,44,0,0,1,623,244.64a59,59,0,0,1,10.51-16.12,54.78,54.78,0,0,1,15.06-11.65,37.67,37.67,0,0,1,17.78-4.47,38.11,38.11,0,0,1,11.47,1.49,26.91,26.91,0,0,1,7.44,3.5,14.13,14.13,0,0,1,4,4.12,7.28,7.28,0,0,1,1.23,3.33,3.46,3.46,0,0,1-2.54,3.42A13.27,13.27,0,0,1,683.33,229.22Zm-14.72,23.31a41,41,0,0,0,1.06,10,41.54,41.54,0,0,0,3.85-10.07,39.74,39.74,0,0,0,1.22-8.85c0-2.92-.52-4.38-1.57-4.38s-2.08,1.29-3.07,3.85A26.47,26.47,0,0,0,668.61,252.53Z"/><path d="M855.17,260.55l-3-.1-4,131h.25c-3.76,2.16-10.43,1-14.23,1L784.29,392,672.5,391s-.06,5,0,5l101.81.92,50.91.46c6.63.06,14.32,1.28,20.85-.16,4.67-1,5.44-4.82,5.51-9.09a32.18,32.18,0,0,0-.18-3.95Z"/><path d="M868.17,239.11l-3.72-.11-5,162.88h.31c-4.67,2.68-12.95,1.27-17.68,1.23L780,402.56,641,401.3s-.07,6.22,0,6.22l126.59,1.14,63.3.57c8.24.08,17.81,1.6,25.92-.19,5.81-1.28,6.77-6,6.86-11.3a41.75,41.75,0,0,0-.23-4.91Z"/><path d="M13,149.36l3,.09,4-131h-.25c3.75-2.16,10.42-1,14.22-1l49.91.45,111.8,1s0-5,0-5L93.86,13,43,12.54c-6.63-.06-14.33-1.28-20.85.16-4.68,1-5.45,4.82-5.52,9.08a36.46,36.46,0,0,0,.18,3.95Z"/><path d="M0,170.79l3.73.12L8.7,8H8.39c4.67-2.68,13-1.26,17.69-1.22l62.05.56,139,1.26s.06-6.22,0-6.22L100.54,1.24,37.25.67C29,.6,19.44-.92,11.33.87c-5.82,1.28-6.78,6-6.87,11.29a46.3,46.3,0,0,0,.23,4.91Z"/></g></g></svg>