<svg xmlns="http://www.w3.org/2000/svg" viewBox="0 0 531.56 559.92"><defs><style>.cls-1{stroke:#fff;stroke-miterlimit:10;}</style></defs><title>Resurs 12</title><g id="Lager_2" data-name="Lager 2"><g id="Lager_1-2" data-name="Lager 1"><path class="cls-1" d="M427.08,394.47a69.73,69.73,0,0,1-3.41,8.64q-2.69,6-6.69,13.51t-9.13,15.7a135,135,0,0,1-10.71,14.84,61.21,61.21,0,0,1-11.68,11c-4.06,2.83-8,4.26-11.69,4.26q-8.52,0-14.48-7.79a62.35,62.35,0,0,1-9.61-19.47,138.1,138.1,0,0,1-5.24-25.56,231.66,231.66,0,0,1-1.58-26.05,568.66,568.66,0,0,1,4.87-74.6q4.86-36.87,12.78-73.14t18-71.93q10.1-35.65,20.32-70.95-5.1,0-14.24,12.17a350.26,350.26,0,0,0-20.81,32.13q-11.69,20-25.31,45.76T311,235.89Q297.11,263,283.47,289.44t-25.31,47.83c-.82,1.46-1.87,3.28-3.17,5.47a41.75,41.75,0,0,1-4.5,6.21,30.83,30.83,0,0,1-5.72,5.11,11.39,11.39,0,0,1-6.57,2.19q-3.66,0-5.11-2.43a16.38,16.38,0,0,1-2-6.57q-1.21-14.36-2.19-32.5t-2.07-37q-1.09-18.87-2.31-37.24t-2.68-33.59q-1.45-15.21-3.41-25.8t-4.62-14q0,2,.24,4.38c0,1.3,0,2.92.12,4.87s.12,4.06.12,6.33a227.34,227.34,0,0,1-2.43,29.94q-2.43,17.76-7.3,38.58t-12.05,43.32a452.94,452.94,0,0,1-16.67,44.18A371,371,0,0,1,154.71,380a189.31,189.31,0,0,1-25.8,34.32,120.73,120.73,0,0,1-30.3,23.37,72.1,72.1,0,0,1-34.44,8.64q-12.42,0-20.69-4.74a44.36,44.36,0,0,1-13.39-11.44,53.78,53.78,0,0,1-7.79-13.88q-2.68-7.17-3.89-11.8l2.43-1a32,32,0,0,0,8,11.69,40.92,40.92,0,0,0,11.32,7.3,54.32,54.32,0,0,0,13.14,3.77,89.69,89.69,0,0,0,14,1.1A66.82,66.82,0,0,0,98,419.9a107.83,107.83,0,0,0,27.38-20.2,180.49,180.49,0,0,0,23.85-29.94,310.26,310.26,0,0,0,20.21-36.63,372.12,372.12,0,0,0,16.06-40.28q6.94-20.82,11.68-41a367.8,367.8,0,0,0,7.06-38.7,240.08,240.08,0,0,0,2.07-33.34,72.42,72.42,0,0,0-.48-7.79c-.33-2.92-.65-5.68-1-8.28a14.12,14.12,0,0,1,1.1-2.67,16.69,16.69,0,0,1,2.31-3.41,11.85,11.85,0,0,1,3.53-2.8,10.54,10.54,0,0,1,5-1.1q6.81,0,11.32,9.74T235.28,189q2.67,15.83,4.13,35.9t2.44,40.77q1,20.69,1.7,40.16t2.19,33.83q1.47,0,5.72-7.54t10.83-20.33q6.58-12.78,15.1-29.94t18.13-36.38q9.62-19.23,20.2-39.68t21.18-39.67q10.59-19.23,21.05-36.39t20-29.94a143.13,143.13,0,0,1,17.77-20.32Q403.95,72,410.28,72a39.43,39.43,0,0,1,3.9,2.8,4.75,4.75,0,0,1,1.94,3.77q-9,32.86-19,69.74t-18.38,75.57q-8.4,38.7-13.87,78.13a564.31,564.31,0,0,0-5.48,77.65,156.89,156.89,0,0,0,1.46,20.32,127.24,127.24,0,0,0,4.38,20.57,64.68,64.68,0,0,0,7.06,15.94q4.14,6.45,9.5,6.45,4.62,0,10.95-5.84a123.61,123.61,0,0,0,12.65-13.75A169.65,169.65,0,0,0,417,407a146.81,146.81,0,0,0,7.66-13.51Z"/><path d="M512.84,344.81l-4.32-.13-5.76,188.66h.36c-5.4,3.11-15,1.47-20.48,1.42l-71.88-.65-161-1.45s-.07,7.2,0,7.2l146.63,1.32,73.32.67c9.54.08,20.63,1.84,30-.23,6.74-1.48,7.85-7,7.95-13.09a50.53,50.53,0,0,0-.26-5.68Z"/><path d="M531.56,313.94l-5.36-.16L519,548.36l.45,0c-6.72,3.86-18.66,1.82-25.47,1.76l-89.37-.81-200.2-1.81s-.09,9,0,9l182.32,1.64,91.16.83c11.87.11,25.65,2.29,37.33-.28,8.38-1.85,9.76-8.64,9.89-16.27a60.78,60.78,0,0,0-.34-7.07Z"/><path d="M19.31,222l4.45.13L29.65,27.42h-.37c5.58-3.2,15.49-1.52,21.14-1.47l74.16.65L290.72,28s.07-7.43,0-7.43l-151.3-1.32-75.65-.66c-9.84-.09-21.28-1.9-31,.24-6.95,1.53-8.1,7.17-8.2,13.5a51.42,51.42,0,0,0,.28,5.87Z"/><path d="M0,253.81l5.54.17,7.32-242-.46,0c6.94-4,19.25-1.89,26.28-1.83l92.22.81L337.46,12.7s.1-9.24,0-9.24L149.34,1.81,55.27,1C43,.88,28.81-1.37,16.76,1.29,8.12,3.2,6.7,10.21,6.56,18.08a62.53,62.53,0,0,0,.35,7.3Z"/></g></g></svg>